<?xml version="1.0" encoding="utf-8"?>
<!-- Generator: Adobe Illustrator 23.0.1, SVG Export Plug-In . SVG Version: 6.00 Build 0)  -->
<svg version="1.1" id="Layer_1" xmlns="http://www.w3.org/2000/svg" xmlns:xlink="http://www.w3.org/1999/xlink" x="0px" y="0px"
	 viewBox="0 0 800 800" style="enable-background:new 0 0 800 800;" xml:space="preserve">
<style type="text/css">
	.st0{fill:#7D4CDB;}
</style>
<g>
	<path class="st0" d="M405.8,533.6c-30.5-1.5-91.6-11.6-91.6-72.7H178.9v183.3h127.3l8-56c27.6,32.7,78.6,66.9,152,66.9
		c86.5,0,192.7-40.7,192.7-154.2c0-170.9-288-153.4-288-228.3c0-25.5,29.1-38.6,50.2-38.6c50.9,0,93.1,30.5,93.1,84.4h131.6V135.8
		H520.7l-7.3,61.1c-29.1-54.5-90.9-74.2-152-74.2c-71.3,0-173.1,48.7-173.1,156.4c0,185.5,279.3,161.4,279.3,218.2
		C467.6,527.8,431.3,533.6,405.8,533.6z"/>
	<path class="st0" d="M139.3,741.4c-44.5,0-80.7-36.2-80.7-80.7V74.2c0-8.9,1.5-17.7,4.4-26.1c-30.5,7.1-52.9,34.3-52.9,66.6v606.7
		c0,37.8,30.7,68.5,68.5,68.5h606.7c32.3,0,59.5-22.4,66.6-52.9c-8.4,2.9-17.2,4.4-26.1,4.4H139.3z M22.8,94.8
		c0.9-2.5,1.9-4.9,3.1-7.2c5.4-10.5,13.8-19.1,24.2-24.8v0c-10.4,5.7-18.8,14.3-24.2,24.8C24.7,89.9,23.7,92.3,22.8,94.8
		c-0.9,2.5-1.6,5.1-2.2,7.7C21.2,99.8,21.9,97.3,22.8,94.8z M78.6,764.1c-23.5,0-42.7-19.1-42.7-42.7v-34.9
		c9.5,38,39.5,68,77.5,77.5H78.6z M737.2,749.9c-3.8,0.5-7.6,0.7-11.4,0.7H139.3c-49.6,0-89.9-40.3-89.9-89.9v0
		c0,49.6,40.3,89.9,89.9,89.9h586.5C729.6,750.6,733.4,750.4,737.2,749.9C737.2,749.9,737.2,749.9,737.2,749.9z"/>
	<path class="st0" d="M725.8,10.1h-557c-17.5,0-34,7.2-45.9,19.5h562.5c46.9,0,85.1,38.2,85.1,85.1v474
		c12.3-11.9,19.5-28.4,19.5-45.9V74.2C789.9,38.9,761.1,10.1,725.8,10.1z"/>
</g>
</svg>
