<?xml version="1.0" encoding="utf-8"?>
<!-- Generator: Adobe Illustrator 23.0.1, SVG Export Plug-In . SVG Version: 6.00 Build 0)  -->
<svg version="1.1" id="Layer_1" xmlns="http://www.w3.org/2000/svg" xmlns:xlink="http://www.w3.org/1999/xlink" x="0px" y="0px"
	 viewBox="0 0 800 800" style="enable-background:new 0 0 800 800;" xml:space="preserve">
<style type="text/css">
	.st0{fill:#FFFFFF;}
</style>
<g>
	<path class="st0" d="M355.36,779.9c-63.76-10.1-117.41-48.74-147.19-106.02c-18.36-35.32-46.73-63.69-82.05-82.05
		C68.84,562.05,30.2,508.4,20.1,444.64c-7.82-49.36,2.52-98.23,28.58-139.14c-83.44,95.13-56.61,245.11,57.48,304.42l0,0
		c35.94,18.68,65.25,47.99,83.93,83.93l0,0c59.3,114.08,209.28,140.92,304.41,57.49c-31.96,20.36-68.78,31.12-106.9,31.12
		C376.92,782.45,366.16,781.61,355.36,779.9z"/>
	<path class="st0" d="M535.73,717.49c22.13-14.03,46.94-23.61,73.06-27.96l0,0c37.95-6.33,70.97-22.81,97.29-45.9
		c-22.29,14.04-47.49,23.73-74.58,28.24C595.67,677.84,562.78,693.57,535.73,717.49z"/>
	<path class="st0" d="M156.38,93.91c-23.09,26.32-39.57,59.34-45.9,97.3l0,0c-4.36,26.12-13.94,50.93-27.96,73.06
		c23.92-27.05,39.64-59.94,45.62-95.77C132.65,141.41,142.33,116.2,156.38,93.91z"/>
	<path class="st0" d="M176.51,74.05c56.14-65.9,153.24-91.13,238.27-48.68l0,0c36.24,18.09,77.17,24.58,117.23,18.57h0
		c131.02-19.66,243.7,93.02,224.05,224.05v0l4.35,0.65c9.58-63.84-11.11-126.64-56.76-172.29C658,50.7,595.2,30.02,531.36,39.59
		c-39.36,5.91-79-0.37-114.61-18.15C358.99-7.4,292.87-7.13,235.35,22.18c-33.05,16.84-60,41.63-78.98,71.74
		C162.63,86.79,169.36,80.16,176.51,74.05z"/>
	<path class="st0" d="M778.56,383.25c-17.78-35.61-24.06-75.25-18.15-114.61l-4.35-0.65v0c-6.01,40.06,0.47,80.99,18.57,117.23l0,0
		c42.46,85.03,17.22,182.13-48.68,238.27c-6.11,7.15-12.74,13.89-19.87,20.14c30.11-18.97,54.9-45.92,71.74-78.98
		C807.13,507.13,807.4,441.01,778.56,383.25z"/>
	<path class="st0" d="M56.59,296.97c9.84-10,18.49-20.98,25.92-32.7c-2.29,2.59-4.62,5.14-7.06,7.62
		c-10.23,10.4-19.16,21.67-26.77,33.61C51.22,302.6,53.85,299.75,56.59,296.97L56.59,296.97z"/>
	<path class="st0" d="M503.03,743.41c-2.79,2.75-5.64,5.38-8.54,7.92c11.95-7.61,23.22-16.55,33.62-26.78
		c2.48-2.44,5.03-4.77,7.62-7.06C524.01,724.92,513.03,733.57,503.03,743.41L503.03,743.41z"/>
	<path class="st0" d="M725.95,623.49c-25.96,22.12-58.23,37.88-95.17,44.04l0,0c-39.95,6.66-76.88,25.48-105.76,53.88l0,0
		c-94.44,92.92-251.84,67.99-312.95-49.57l0,0c-18.68-35.94-47.99-65.25-83.93-83.93l0,0C10.6,526.81-14.33,369.42,78.59,274.97l0,0
		c28.41-28.87,47.22-65.8,53.88-105.76l0,0c6.16-36.93,21.92-69.21,44.04-95.17c-7.15,6.11-13.88,12.74-20.14,19.86
		c-14.05,22.29-23.73,47.49-28.25,74.58c-5.98,35.84-21.7,68.73-45.62,95.77c-7.43,11.72-16.08,22.7-25.92,32.7l0,0
		c-2.74,2.79-5.37,5.63-7.91,8.53c-26.06,40.91-36.4,89.78-28.58,139.14c10.1,63.76,48.74,117.41,106.02,147.19
		c35.32,18.36,63.69,46.74,82.05,82.05c29.78,57.28,83.43,95.92,147.19,106.02c10.79,1.71,21.56,2.55,32.23,2.55
		c38.12,0,74.94-10.76,106.9-31.12c2.9-2.54,5.75-5.18,8.54-7.92l0,0c10-9.84,20.98-18.49,32.7-25.92
		c27.05-23.92,59.94-39.64,95.77-45.62c27.09-4.52,52.29-14.2,74.58-28.24C713.21,637.37,719.84,630.64,725.95,623.49z"/>
	<path class="st0" d="M532.01,43.94L532.01,43.94c-40.06,6.01-80.99-0.47-117.23-18.57l0,0C329.75-17.08,232.65,8.15,176.51,74.05
		c7.01-5.99,14.42-11.46,22.16-16.4c12.14-10.72,25.75-20.03,40.67-27.64c27.75-14.14,57.57-21.21,87.42-21.21
		c29.33,0,58.68,6.83,86.05,20.5c37.24,18.59,78.69,25.16,119.85,18.98c61.05-9.16,121.11,10.62,164.76,54.28
		c43.66,43.66,63.44,103.71,54.28,164.76c-6.18,41.17,0.39,82.61,18.98,119.85c27.58,55.24,27.32,118.47-0.71,173.47
		c-7.6,14.92-16.91,28.54-27.64,40.67c-4.94,7.74-10.41,15.15-16.4,22.16c65.9-56.14,91.13-153.24,48.68-238.27l0,0
		c-18.09-36.24-24.58-77.17-18.57-117.23v0l0,0l0,0v0C775.72,136.96,663.03,24.28,532.01,43.94z"/>
	<path class="st0" d="M630.06,663.19c-41.06,6.85-78.44,25.9-108.12,55.09c-36.56,35.97-84.3,55.38-134.38,55.37
		c-10.2,0-20.5-0.81-30.82-2.44c-60.98-9.66-112.28-46.61-140.76-101.39c-19.2-36.93-48.87-66.6-85.8-85.8
		C75.4,555.54,38.44,504.24,28.79,443.26s9.64-121.19,52.93-165.2c29.19-29.67,48.24-67.06,55.09-108.12
		c7.4-44.38,29.27-83.48,61.86-112.29c-7.74,4.94-15.15,10.41-22.16,16.4c-22.12,25.96-37.88,58.23-44.04,95.17l0,0
		c-6.66,39.95-25.48,76.88-53.88,105.76l0,0c-92.92,94.44-67.99,251.84,49.57,312.95l0,0c35.94,18.68,65.25,47.99,83.93,83.93l0,0
		c61.11,117.55,218.5,142.48,312.95,49.57l0,0c28.87-28.41,65.8-47.22,105.76-53.88l0,0c36.93-6.16,69.21-21.92,95.17-44.04
		c5.99-7.01,11.46-14.42,16.4-22.16C713.54,633.93,674.43,655.79,630.06,663.19z"/>
	<path class="st0" d="M434.95,461.91c-18.22-0.87-54.67-6.94-54.67-43.39h-80.7v109.33h75.92l4.77-33.41
		c16.49,19.53,46.86,39.91,90.67,39.91c51.63,0,114.97-24.3,114.97-91.98c0-101.95-171.81-91.54-171.81-136.22
		c0-15.19,17.35-23,29.94-23c30.37,0,55.53,18.22,55.53,50.33h78.53V224.6H503.5l-4.34,36.44c-17.35-32.54-54.23-44.26-90.67-44.26
		c-42.52,0-103.26,29.07-103.26,93.28c0,110.64,166.6,96.31,166.6,130.16C471.83,458.44,450.14,461.91,434.95,461.91z"/>
	<path class="st0" d="M239.76,614.77h361.95c19.28,0,35.5-13.35,39.72-31.53c-5.01,1.73-10.29,2.62-15.59,2.62H275.95
		c-26.54,0-48.13-21.59-48.13-48.14V187.85c0-5.3,0.89-10.58,2.62-15.59c-18.17,4.22-31.53,20.44-31.53,39.72v361.95
		C198.92,596.45,217.24,614.77,239.76,614.77z M204.41,211.98c0-13.32,7.37-24.96,18.35-30.96c-0.29,2.26-0.44,4.54-0.44,6.83
		v349.88c0,29.57,24.06,53.63,53.63,53.63h349.88c2.29,0,4.57-0.15,6.83-0.44c-6,10.98-17.64,18.35-30.96,18.35H239.76
		c-19.49,0-35.35-15.86-35.35-35.35V211.98z"/>
	<path class="st0" d="M239.76,609.28h361.95c13.32,0,24.96-7.37,30.96-18.35c-2.26,0.29-4.54,0.44-6.83,0.44H275.95
		c-29.57,0-53.63-24.06-53.63-53.63V187.85c0-2.29,0.15-4.57,0.44-6.83c-10.98,6-18.35,17.64-18.35,30.96v361.95
		C204.41,593.42,220.27,609.28,239.76,609.28z M214.31,553.13c5.67,22.69,23.57,40.59,46.25,46.25h-20.8
		c-14.03,0-25.45-11.42-25.45-25.45V553.13z"/>
	<path class="st0" d="M652.45,211.98v282.75c7.33-7.12,11.62-16.95,11.62-27.38v-279.5c0-21.08-17.15-38.24-38.24-38.24H293.55
		c-10.43,0-20.26,4.29-27.38,11.62h335.54C629.69,161.24,652.45,184,652.45,211.98z"/>
</g>
</svg>
