<?xml version="1.0" encoding="utf-8"?>
<!-- Generator: Adobe Illustrator 23.0.1, SVG Export Plug-In . SVG Version: 6.00 Build 0)  -->
<svg version="1.1" id="Layer_1" xmlns="http://www.w3.org/2000/svg" xmlns:xlink="http://www.w3.org/1999/xlink" x="0px" y="0px"
	 viewBox="0 0 829.43 398.25" style="enable-background:new 0 0 829.43 398.25;" xml:space="preserve">
<style type="text/css">
	.st0{fill:#FFFFFF;}
</style>
<g>
	<path class="st0" d="M89.8,52.16c-11.09,12.64-19,28.49-22.04,46.72l0,0c-2.09,12.54-6.69,24.45-13.43,35.08
		c11.48-12.99,19.03-28.78,21.9-45.99C78.41,74.96,83.06,62.86,89.8,52.16z"/>
	<path class="st0" d="M271.95,351.57c10.62-6.74,22.54-11.33,35.08-13.43h0c18.23-3.04,34.08-10.95,46.72-22.04
		c-10.7,6.74-22.8,11.39-35.81,13.56C300.73,332.54,284.94,340.08,271.95,351.57z"/>
	<path class="st0" d="M185.34,381.54c-30.62-4.85-56.37-23.4-70.67-50.91c-8.82-16.96-22.44-30.58-39.4-39.4
		c-27.5-14.3-46.06-40.06-50.91-70.67c-3.75-23.7,1.21-47.17,13.72-66.81c-40.07,45.68-27.18,117.69,27.6,146.17h0
		c17.26,8.97,31.33,23.04,40.3,40.3l0,0c28.49,54.81,100.58,67.68,146.25,27.53c-15.37,9.81-33.08,15.02-51.42,15.02
		C195.69,382.76,190.53,382.36,185.34,381.54z"/>
	<path class="st0" d="M256.25,364.02c-1.31,1.29-2.65,2.53-4.01,3.73c5.7-3.64,11.09-7.89,16.06-12.78
		c1.19-1.17,2.42-2.29,3.66-3.39C266.32,355.14,261.05,359.29,256.25,364.02L256.25,364.02z"/>
	<path class="st0" d="M41.89,149.66c4.72-4.8,8.88-10.07,12.45-15.7c-1.1,1.24-2.22,2.47-3.39,3.66c-4.91,4.99-9.2,10.4-12.85,16.14
		C39.31,152.36,40.57,150.99,41.89,149.66L41.89,149.66z"/>
	<path class="st0" d="M99.47,42.62c26.96-31.64,73.58-43.76,114.41-23.37l0,0c17.4,8.69,37.06,11.8,56.29,8.92h0
		c62.91-9.44,117.02,44.67,107.58,107.58h0h0l0,0l0,0c-1.21,8.04-1.35,16.15-0.49,24.14c0.68-0.26,1.35-0.51,2.03-0.76
		c-0.77-7.62-0.6-15.35,0.55-23.07c4.6-30.65-5.33-60.81-27.25-82.73c-21.92-21.92-52.08-31.85-82.73-27.25
		c-18.9,2.84-37.93-0.18-55.03-8.72c-27.73-13.85-59.48-13.72-87.1,0.35C111.85,25.8,98.91,37.7,89.8,52.16
		C92.8,48.74,96.03,45.55,99.47,42.62z"/>
	<path class="st0" d="M363.28,306.44c-2.93,3.43-6.12,6.67-9.54,9.67c14.46-9.11,26.36-22.05,34.44-37.92
		c1.43-2.8,2.7-5.65,3.84-8.52c-0.74-0.05-1.46-0.16-2.19-0.24C384.15,283.61,375.07,296.39,363.28,306.44z"/>
	<path class="st0" d="M363.28,306.44c-12.47,10.62-27.96,18.19-45.7,21.15l0,0c-19.18,3.2-36.91,12.23-50.78,25.87l0,0
		c-45.35,44.61-120.92,32.64-150.26-23.8l0,0c-8.97-17.26-23.04-31.33-40.3-40.3l0,0C19.8,260.02,7.83,184.44,52.45,139.1l0,0
		c13.64-13.86,22.67-31.6,25.87-50.78v0c2.96-17.73,10.53-33.23,21.15-45.7c-3.43,2.93-6.67,6.12-9.67,9.54
		c-6.74,10.7-11.39,22.8-13.56,35.81c-2.87,17.21-10.42,33-21.9,45.99c-3.57,5.63-7.72,10.9-12.45,15.7l0,0
		c-1.32,1.34-2.58,2.71-3.8,4.09c-12.51,19.64-17.48,43.11-13.72,66.81c4.85,30.62,23.4,56.38,50.91,70.67
		c16.96,8.82,30.58,22.44,39.4,39.4c14.3,27.5,40.06,46.06,70.67,50.91c5.18,0.82,10.35,1.22,15.47,1.22
		c18.34,0,36.05-5.21,51.42-15.02c1.36-1.2,2.7-2.43,4.01-3.73l0,0c4.8-4.72,10.07-8.88,15.7-12.45
		c12.99-11.48,28.78-19.03,45.98-21.9c13.01-2.17,25.11-6.82,35.81-13.56C357.17,313.1,360.35,309.87,363.28,306.44z"/>
	<path class="st0" d="M384.43,276.27c-3.63,7.12-8.08,13.59-13.18,19.39c-2.39,3.77-5.05,7.37-7.96,10.78
		c11.79-10.05,20.87-22.82,26.56-37.01c-0.72-0.08-1.45-0.15-2.17-0.26C386.7,271.56,385.62,273.93,384.43,276.27z"/>
	<path class="st0" d="M375.19,160.72c0.69-0.29,1.38-0.57,2.06-0.84c-0.86-7.99-0.71-16.1,0.49-24.14l0,0l0,0l-2.09-0.31
		C374.38,143.89,374.24,152.38,375.19,160.72z"/>
	<path class="st0" d="M129.64,21.48c13.32-6.79,27.64-10.18,41.97-10.18c14.08,0,28.17,3.28,41.32,9.84
		c17.88,8.93,37.78,12.08,57.55,9.11c29.32-4.4,58.15,5.1,79.11,26.06c20.96,20.96,30.46,49.8,26.06,79.11l2.09,0.31
		c9.44-62.91-44.67-117.02-107.58-107.58h0c-19.23,2.89-38.89-0.23-56.29-8.92l0,0c-40.83-20.39-87.45-8.27-114.41,23.37
		c3.41-2.91,7.01-5.57,10.78-7.96C116.04,29.55,122.52,25.1,129.64,21.48z"/>
	<path class="st0" d="M317.24,325.5c-19.71,3.29-37.66,12.43-51.91,26.45c-21.13,20.79-50.04,30.06-79.32,25.42
		c-29.28-4.64-53.91-22.38-67.58-48.68c-9.22-17.73-23.46-31.98-41.2-41.2c-26.3-13.67-44.05-38.31-48.68-67.59
		c-4.64-29.28,4.63-58.19,25.42-79.32c14.02-14.25,23.16-32.2,26.45-51.91c3.56-21.36,14.12-40.16,29.84-54.01
		c-3.77,2.39-7.37,5.05-10.78,7.96c-10.62,12.47-18.19,27.96-21.15,45.7v0c-3.2,19.18-12.23,36.91-25.87,50.78l0,0
		C7.83,184.44,19.8,260.02,76.25,289.36l0,0c17.26,8.97,31.33,23.04,40.3,40.3l0,0c29.34,56.44,104.92,68.41,150.26,23.8l0,0
		c13.86-13.64,31.6-22.67,50.78-25.87l0,0c17.73-2.96,33.23-10.53,45.7-21.15c2.91-3.41,5.57-7.01,7.96-10.78
		C357.4,311.38,338.6,321.94,317.24,325.5z"/>
	<path class="st0" d="M197.31,244.48c7.92,9.38,22.5,19.17,43.54,19.17c24.79,0,55.2-11.67,55.2-44.16
		c0-48.95-82.49-43.95-82.49-65.41c0-7.29,8.33-11.04,14.37-11.04c14.58,0,26.66,8.75,26.66,24.16h37.71v-52.29h-35.83l-2.08,17.5
		c-8.33-15.63-26.04-21.25-43.54-21.25c-20.41,0-49.58,13.96-49.58,44.79c0,53.12,79.99,46.25,79.99,62.49
		c0,8.75-10.42,10.42-17.71,10.42c-8.75-0.42-26.25-3.33-26.25-20.83h-38.75v52.5h36.46L197.31,244.48z"/>
	<path class="st0" d="M124.1,265.26v-168c0-2.55,0.43-5.08,1.26-7.49c-8.73,2.03-15.14,9.81-15.14,19.07v173.79
		c0,10.81,8.8,19.61,19.61,19.61h173.79c9.26,0,17.04-6.41,19.07-15.14c-2.4,0.83-4.94,1.26-7.49,1.26h-168
		C134.47,288.37,124.1,278.01,124.1,265.26z M318.49,290.8c-2.88,5.27-8.47,8.81-14.87,8.81H129.84c-9.36,0-16.97-7.61-16.97-16.97
		V108.85c0-6.4,3.54-11.98,8.81-14.87c-0.14,1.09-0.21,2.18-0.21,3.28v168c0,14.2,11.55,25.75,25.75,25.75h168
		C316.31,291.01,317.41,290.94,318.49,290.8z"/>
	<path class="st0" d="M121.46,265.26v-168c0-1.1,0.07-2.19,0.21-3.28c-5.27,2.88-8.81,8.47-8.81,14.87v173.79
		c0,9.36,7.61,16.97,16.97,16.97h173.79c6.4,0,11.98-3.54,14.87-8.81c-1.09,0.14-2.18,0.21-3.28,0.21h-168
		C133.02,291.01,121.46,279.46,121.46,265.26z M129.84,294.86c-6.74,0-12.22-5.48-12.22-12.22v-9.99
		c2.72,10.89,11.32,19.49,22.21,22.21H129.84z"/>
	<path class="st0" d="M333.57,97.26c0-10.12-8.24-18.36-18.36-18.36H155.66c-5.01,0-9.73,2.06-13.15,5.58h161.11
		c13.43,0,24.36,10.93,24.36,24.36v30.06l5.58-1.79V97.26z"/>
	<path class="st0" d="M564.29,200.74c-0.15-1.02-0.36-1.99-0.65-2.86C563.93,198.75,564.14,199.72,564.29,200.74z"/>
	<path class="st0" d="M504.43,195.93c-0.45,0.61-0.8,1.33-1.07,2.18C503.63,197.26,503.99,196.53,504.43,195.93z"/>
	<path class="st0" d="M508.26,193.68c0.56-0.1,1.17-0.15,1.82-0.15l0,0C509.43,193.53,508.82,193.58,508.26,193.68z"/>
	<path class="st0" d="M564.58,203.97c0.15,3.34-0.06,6.94-0.06,9.89v40.17h0v-40.17C564.52,210.91,564.72,207.31,564.58,203.97z"/>
	<rect x="612.73" y="172.05" class="st0" width="0" height="21.81"/>
	<rect x="612.73" y="265.99" class="st0" width="0" height="21.47"/>
	<path class="st0" d="M656.09,175.72c-1.24,0.77-2.25,1.5-3.03,2.07v0C653.84,177.22,654.85,176.49,656.09,175.72z"/>
	<path class="st0" d="M652.85,212.47c0.02-1.54,0.13-3,0.33-4.38C652.98,209.47,652.86,210.93,652.85,212.47z"/>
	<path class="st0" d="M656.46,228.86c-0.54-0.88-1.04-1.85-1.47-2.89C655.42,227.01,655.92,227.98,656.46,228.86z"/>
	<path class="st0" d="M653.86,222.62c-0.31-1.18-0.55-2.43-0.72-3.73C653.31,220.19,653.55,221.44,653.86,222.62z"/>
	<path class="st0" d="M653.54,206.1c0.28-1.29,0.64-2.49,1.07-3.59C654.18,203.61,653.82,204.81,653.54,206.1z"/>
	<path class="st0" d="M671.4,231.32c-0.92,1.03-1.95,1.83-3.08,2.38C669.45,233.15,670.48,232.35,671.4,231.32z"/>
	<path class="st0" d="M672.89,170.74c-1.84,0-3.58,0.17-5.22,0.45C669.31,170.91,671.05,170.74,672.89,170.74L672.89,170.74z"/>
	<path class="st0" d="M660.45,173.41c1.67-0.74,3.55-1.4,5.63-1.89C664,172,662.12,172.67,660.45,173.41z"/>
	<path class="st0" d="M668.33,233.69c-0.75,0.36-1.54,0.61-2.37,0.73C666.79,234.3,667.58,234.05,668.33,233.69z"/>
	<path class="st0" d="M676.33,214.02c0,7.01-1.5,12.62-4.05,16.18C674.83,226.64,676.33,221.03,676.33,214.02
		c0-1.23-0.07-2.47-0.21-3.69C676.26,211.56,676.33,212.79,676.33,214.02z"/>
	<path class="st0" d="M671.44,197.65c0.62,0.78,1.19,1.65,1.7,2.61C672.63,199.3,672.06,198.42,671.44,197.65z"/>
	<path class="st0" d="M658.87,196.12c-1.37,1.18-2.6,2.8-3.58,4.81C656.27,198.92,657.49,197.3,658.87,196.12z"/>
	<path class="st0" d="M664.53,193.86c-0.8,0-1.59,0.13-2.36,0.37C662.94,193.98,663.73,193.86,664.53,193.86L664.53,193.86z"/>
	<path class="st0" d="M657.31,230.12c1.47,1.98,3.22,3.38,5.09,4.01C660.53,233.49,658.78,232.09,657.31,230.12z"/>
	<path class="st0" d="M674.5,203.32c0.79,2.17,1.34,4.56,1.62,7.01C675.84,207.88,675.29,205.49,674.5,203.32z"/>
	<path class="st0" d="M673.14,200.25c0.51,0.95,0.97,1.98,1.36,3.07C674.11,202.23,673.65,201.21,673.14,200.25z"/>
	<path class="st0" d="M658.87,196.12c1.03-0.88,2.14-1.52,3.3-1.89C661.01,194.6,659.9,195.23,658.87,196.12z"/>
	<path class="st0" d="M720.57,189.44c-0.16,0.27-0.3,0.56-0.45,0.84v0C720.28,190,720.42,189.71,720.57,189.44z"/>
	<path class="st0" d="M721.59,187.75c0.7-1.1,1.45-2.15,2.24-3.16C723.04,185.6,722.29,186.65,721.59,187.75z"/>
	<path class="st0" d="M727.67,180.4c0.91-0.86,1.86-1.66,2.84-2.42C729.53,178.74,728.58,179.55,727.67,180.4z"/>
	<path class="st0" d="M747.31,170.84c1.22-0.19,2.46-0.31,3.71-0.37C749.77,170.52,748.53,170.65,747.31,170.84z"/>
	<path class="st0" d="M733.56,175.89c1.05-0.65,2.12-1.24,3.23-1.78C735.68,174.65,734.61,175.24,733.56,175.89z"/>
	<path class="st0" d="M740.17,172.67c1.15-0.42,2.32-0.79,3.52-1.1C742.49,171.88,741.32,172.25,740.17,172.67z"/>
	<path class="st0" d="M727.67,180.4c-0.91,0.86-1.79,1.76-2.62,2.72C725.88,182.17,726.76,181.26,727.67,180.4z"/>
	<path class="st0" d="M716.65,198.87c0.38-1.36,0.83-2.69,1.33-3.97C717.48,196.18,717.04,197.5,716.65,198.87z"/>
	<path class="st0" d="M720.13,190.27c-0.48,0.89-0.94,1.8-1.36,2.74C719.19,192.07,719.65,191.16,720.13,190.27L720.13,190.27z"/>
	<path class="st0" d="M348.59,235.66c-6.39,0-5.25-7.54-5.25-13.12v-29.18h15.58v-0.31l-3.55-9.8c-1.39-3.83-0.81-7.96,1.29-11.2
		h-13.31V147.3l-4.49,1.44v82.73c0,8.59-4.7,16.53-12.28,20.71c-0.4,0.22-0.84,0.33-1.28,0.33c-0.48,0-0.97-0.13-1.39-0.4
		c-0.81-0.51-1.29-1.41-1.24-2.36l0.02-0.41c0.01-0.16,0.02-0.32,0.02-0.48v-94.93l-9.53,3.06v15.08h-8.85v21.31h8.85v29.18
		c0.49,20.98,1.31,34.43,25.91,34.43c3.77,0,14.92-1.15,19.84-3.12v-0.58c-3.99-5.18-6.51-11.31-7.39-18.06
		C350.35,235.49,349.3,235.66,348.59,235.66z"/>
	<path class="st0" d="M333.57,231.47v-81.04l-5.58,1.79v92.4C331.51,241.2,333.57,236.48,333.57,231.47z"/>
	<path class="st0" d="M322.69,249.33l-0.02,0.41c-0.05,0.96,0.43,1.86,1.24,2.36c0.43,0.27,0.91,0.4,1.39,0.4
		c0.44,0,0.88-0.11,1.28-0.33c7.57-4.18,12.28-12.12,12.28-20.71v-82.73l-2.64,0.85v81.88c0,7.9-4.42,14.81-10.91,18.4
		c0.02-0.34,0.05-0.67,0.05-1.02v-95.78l-2.64,0.85v94.93C322.71,249.01,322.7,249.17,322.69,249.33z"/>
	<path class="st0" d="M325.3,249.87c6.49-3.58,10.91-10.5,10.91-18.4v-81.88l-2.64,0.85v81.04c0,5.01-2.06,9.73-5.58,13.15v-92.4
		l-2.64,0.85v95.78C325.35,249.19,325.31,249.53,325.3,249.87z"/>
	<path class="st0" d="M355.37,183.25l3.55,9.8v-21h-2.26C354.55,175.3,353.98,179.42,355.37,183.25z"/>
	<path class="st0" d="M358.92,253.28v-13.58c-0.61-2.02-1.02-4.14-1.24-6.34c-1.92,0.72-4.22,1.42-6.15,1.86
		C352.41,241.97,354.93,248.11,358.92,253.28z"/>
	<path class="st0" d="M358.92,232.87c-0.38,0.16-0.8,0.33-1.24,0.49c0.21,2.21,0.63,4.32,1.24,6.34V232.87z"/>
	<path class="st0" d="M447.45,201.07c0-26.4-24.76-33.78-44.43-33.78c-7.74,0-15.22,2.03-21.55,4.54c1.63,6.6,3.98,13.05,7.08,19.25
		c0.11,0.22,0.21,0.44,0.31,0.65c3.07-0.81,6.33-1.32,9.74-1.32c8.86,0,15.58,1.8,15.58,9.18v5.74c-0.82-0.98-6.56-5.74-16.23-5.74
		c-1.87,0-3.71,0.12-5.5,0.36c2.67,6.97,4.51,14.12,5.5,21.35c1.54-1.19,3.71-1.87,6.56-1.87c6.89,0,9.18,3.93,9.67,4.75v6.23
		c-1.47,2.46-5.57,5.41-10.49,5.41c-1.81,0-3.47-0.43-4.84-1.19c-0.03,7.55-0.96,15.09-2.79,22.5c0.03,0,0.06,0,0.09,0
		c5.9,0,16.07-2.13,22.13-10.49l3.93,7.38h28.98v-20.98h-3.73V201.07z"/>
	<path class="st0" d="M388.21,200.72c-3.95,0.94-7.62,2.47-10.85,4.51c7.66,16.55,10.07,33.96,8.1,50.55
		c2.05,0.53,4.16,0.91,6.27,1.13C396.5,238.35,395.33,218.85,388.21,200.72z"/>
	<path class="st0" d="M371.59,190.83l2.58,7.12c3.04-1.68,6.62-3.51,10.61-4.95c-0.01-0.01-0.01-0.02-0.02-0.04
		c-3.13-6.27-5.53-12.79-7.23-19.46c-2.19,1-4.19,2.01-5.95,2.97V190.83z"/>
	<path class="st0" d="M364.9,221.74c0.35,0.19,0.7,0.36,1.03,0.58c3.54,2.35,5.66,6.31,5.66,10.56v15.58
		c3.79,3.56,8.66,5.97,13.88,7.33c1.97-16.59-0.44-34-8.1-50.55C371.34,209.05,366.84,214.68,364.9,221.74z"/>
	<path class="st0" d="M396.06,223.51c0.47-0.85,1.09-1.6,1.88-2.21c-1-7.23-2.83-14.38-5.5-21.35c-0.72,0.09-1.43,0.21-2.13,0.33
		C393.28,207.94,395.17,215.74,396.06,223.51z"/>
	<path class="st0" d="M386.66,192.03c0.05,0.1,0.09,0.2,0.14,0.3c0.68-0.21,1.36-0.41,2.06-0.59c-0.11-0.22-0.21-0.44-0.31-0.65
		c-3.09-6.19-5.45-12.64-7.08-19.25c-0.66,0.26-1.32,0.53-1.96,0.8C381.17,179.31,383.55,185.81,386.66,192.03L386.66,192.03z"/>
	<path class="st0" d="M398.84,234.64c-0.84-0.47-1.57-1.07-2.16-1.78c0.12,8.23-0.85,16.37-2.82,24.22
		c0.73,0.04,1.46,0.06,2.19,0.06C397.88,249.73,398.81,242.18,398.84,234.64z"/>
	<path class="st0" d="M396.68,232.86c-1.06-1.27-1.69-2.88-1.69-4.73c0-1.74,0.35-3.3,1.07-4.61c-0.9-7.77-2.78-15.57-5.75-23.23
		c-0.71,0.13-1.41,0.27-2.1,0.44c7.12,18.13,8.28,37.62,3.53,56.19c0.71,0.07,1.41,0.12,2.12,0.16
		C395.82,249.22,396.8,241.09,396.68,232.86z"/>
	<path class="st0" d="M384.78,193.01c0.66-0.24,1.33-0.47,2.02-0.68c-0.05-0.1-0.09-0.2-0.14-0.3l0,0
		c-3.1-6.22-5.48-12.72-7.14-19.39c-0.67,0.29-1.33,0.58-1.98,0.87c1.7,6.67,4.1,13.19,7.23,19.46
		C384.77,192.98,384.78,193,384.78,193.01z"/>
	<path class="st0" d="M369.27,184.42l2.32,6.42v-14.35c-1.39,0.75-2.61,1.46-3.68,2.09C368.29,180.53,368.76,182.48,369.27,184.42z"
		/>
	<path class="st0" d="M369.27,184.42c-0.51-1.94-0.97-3.88-1.36-5.85c-0.21,0.12-0.43,0.25-0.63,0.37L369.27,184.42z"/>
	<path class="st0" d="M365.25,232.87v5.79c1.33,3.91,3.54,7.16,6.34,9.79v-15.58c0-4.24-2.13-8.21-5.66-10.56
		c-0.33-0.22-0.68-0.39-1.03-0.58c-0.62,2.25-0.97,4.66-1.04,7.19C364.74,230.04,365.25,231.42,365.25,232.87z"/>
	<path class="st0" d="M365.25,238.66v-5.79c0-1.46-0.51-2.84-1.39-3.94c-0.01,0.28-0.02,0.55-0.02,0.83
		C363.84,233.05,364.35,236,365.25,238.66z"/>
	<rect x="451.18" y="233.04" class="st0" width="6.11" height="20.98"/>
	<path class="st0" d="M469.96,254.02h42.58v-21.47h-9.84v-29.18c0-2.1,0.21-3.85,0.65-5.26c0.27-0.85,0.62-1.57,1.07-2.18
		c0.89-1.21,2.15-1.96,3.83-2.25c0.56-0.1,1.17-0.15,1.82-0.15l0,0h0c2.05,0,3.49,0.53,4.5,1.66c0.4,0.45,0.74,1,1.02,1.65
		c0.28,0.65,0.5,1.4,0.68,2.26c0.62,3,0.68,7.31,0.68,13.12v41.8h42.46v-21.97h-9.84h0V205.5c0-0.88,0.03-1.73,0.08-2.54
		c0.12-1.62,0.37-3.08,0.81-4.35c0.22-0.63,0.49-1.22,0.81-1.74c0.48-0.79,1.09-1.46,1.85-1.99c0.5-0.35,1.08-0.64,1.72-0.86
		c0.64-0.22,1.36-0.37,2.16-0.44c0.4-0.04,0.82-0.06,1.26-0.06c2.89,0,4.49,1.75,5.36,4.36c0.29,0.87,0.5,1.83,0.65,2.86
		c0.15,1.02,0.24,2.11,0.29,3.22c0.15,3.34-0.06,6.94-0.06,9.89v40.17h41.64v-22.13h-8.03v-22.63c0-20-4.1-39.35-30.66-39.35
		c-11.31,0-19.02,6.07-24.1,11.8c-2.62-3.93-7.87-11.8-24.43-11.8c-3.23,0-6.18,0.86-8.8,2.15c-1.05,0.51-2.04,1.09-2.98,1.71
		c-0.94,0.62-1.81,1.28-2.63,1.95c-1.22,1-2.3,2.03-3.23,2.98c-1.24,1.27-2.2,2.41-2.86,3.18l-3.61-9.67h-30.99v21.64h6.89v38.69
		h-0.8c0.01,0.16,0.02,0.32,0.02,0.49V254.02z"/>
	<path class="st0" d="M463.85,254.02h6.11v-20.98c0-0.17-0.02-0.33-0.02-0.49h-6.09V254.02z"/>
	<path class="st0" d="M549.6,232.06L549.6,232.06l0-26.56c0-0.88,0.03-1.73,0.08-2.54c-0.06,0.81-0.08,1.66-0.08,2.54V232.06z"/>
	<path class="st0" d="M551.3,196.87c0.48-0.79,1.09-1.46,1.85-1.99C552.39,195.41,551.78,196.08,551.3,196.87z"/>
	<path class="st0" d="M510.09,193.53c2.05,0,3.49,0.53,4.5,1.66C513.58,194.06,512.14,193.53,510.09,193.53L510.09,193.53z"/>
	<path class="st0" d="M516.29,199.1c-0.18-0.86-0.4-1.61-0.68-2.26C515.89,197.49,516.11,198.24,516.29,199.1z"/>
	<path class="st0" d="M507.16,173.78c0.94-0.62,1.93-1.2,2.98-1.71C509.09,172.58,508.1,173.16,507.16,173.78z"/>
	<path class="st0" d="M501.3,178.71c0.93-0.95,2.01-1.98,3.23-2.98C503.31,176.73,502.23,177.76,501.3,178.71z"/>
	<rect x="559.43" y="232.06" class="st0" width="0" height="21.97"/>
	<path class="st0" d="M557.02,193.59c-0.8,0.08-1.52,0.23-2.16,0.44C555.51,193.81,556.23,193.66,557.02,193.59z"/>
	<path class="st0" d="M550.49,198.61c-0.44,1.26-0.69,2.73-0.81,4.35C549.8,201.34,550.05,199.88,550.49,198.61z"/>
	<path class="st0" d="M706.24,190.19c-1.85-3.56-4.18-6.77-6.99-9.5c-1.36-1.33-2.84-2.54-4.43-3.63c-0.53-0.36-1.07-0.71-1.62-1.05
		c-1.66-1.01-3.43-1.88-5.32-2.62c-4.4-1.71-9.39-2.66-14.99-2.66c-1.84,0-3.58,0.17-5.22,0.45c-0.54,0.1-1.08,0.2-1.59,0.32
		c-2.08,0.48-3.96,1.15-5.63,1.89c-1.67,0.74-3.13,1.55-4.37,2.32c-1.24,0.77-2.25,1.5-3.03,2.07v0l0,0l-2.79-5.74h-37.54v21.81
		h6.89v72.13h-6.89v21.47h49.02v-21.47h-8.85v-16.56c1.15,0.98,7.7,6.39,21.31,6.39c14.23,0,26.22-7.28,32.55-19.97
		c-2.97-7.3-4.55-15.33-4.55-23.63C702.2,204.41,703.6,196.96,706.24,190.19z M672.29,230.21c-0.28,0.4-0.58,0.77-0.88,1.11
		c-0.92,1.03-1.95,1.83-3.08,2.38c-0.75,0.36-1.54,0.61-2.37,0.73c-0.41,0.06-0.84,0.09-1.27,0.09c-0.78,0-1.55-0.13-2.3-0.39
		c-1.87-0.64-3.62-2.03-5.09-4.01c-0.29-0.4-0.58-0.81-0.85-1.25c-0.54-0.88-1.04-1.85-1.47-2.89c-0.44-1.04-0.81-2.16-1.12-3.35
		c-0.31-1.18-0.55-2.43-0.72-3.73s-0.25-2.65-0.25-4.05c-0.04-0.81-0.06-1.6-0.05-2.37c0.02-1.54,0.13-3,0.33-4.38
		c0.1-0.69,0.22-1.35,0.36-2c0.28-1.29,0.64-2.49,1.07-3.59c0.21-0.55,0.44-1.08,0.69-1.58c0.98-2.01,2.2-3.63,3.58-4.81
		c1.03-0.88,2.14-1.52,3.3-1.89c0.77-0.24,1.56-0.37,2.36-0.37l0,0h0c0.9,0,1.76,0.16,2.58,0.46c1.63,0.6,3.08,1.77,4.33,3.32
		c0.62,0.78,1.19,1.65,1.7,2.61c0.51,0.95,0.97,1.98,1.36,3.07c0.79,2.17,1.34,4.56,1.62,7.01c0.14,1.22,0.21,2.46,0.21,3.69
		C676.33,221.03,674.83,226.64,672.29,230.21z"/>
	<path class="st0" d="M672.89,170.74L672.89,170.74c5.59,0,10.59,0.94,14.99,2.66C683.49,171.68,678.49,170.74,672.89,170.74z"/>
	<path class="st0" d="M694.82,177.06c1.59,1.09,3.06,2.3,4.43,3.63C697.89,179.37,696.41,178.15,694.82,177.06z"/>
	<path class="st0" d="M687.88,173.4c1.88,0.73,3.66,1.61,5.32,2.62C691.54,175.01,689.77,174.13,687.88,173.4z"/>
	<polygon class="st0" points="653.06,177.79 650.27,172.05 650.27,172.05 653.06,177.79 	"/>
	<path class="st0" d="M664.53,193.86L664.53,193.86c0.9,0,1.76,0.16,2.58,0.46C666.29,194.02,665.43,193.86,664.53,193.86z"/>
	<path class="st0" d="M702.2,212.22c0,8.3,1.58,16.34,4.55,23.63c1.46-2.94,2.62-6.16,3.44-9.66c-1.08-4.4-1.66-9.08-1.66-13.98
		c0-4.45,0.48-8.6,1.34-12.47c-0.87-3.39-2.08-6.6-3.63-9.56C703.6,196.96,702.2,204.41,702.2,212.22z"/>
	<path class="st0" d="M710.2,226.2c0.9-3.86,1.39-8.03,1.39-12.5c0-4.85-0.58-9.55-1.71-13.94c-0.86,3.86-1.34,8.01-1.34,12.47
		C708.54,217.12,709.12,221.79,710.2,226.2z"/>
	<path class="st0" d="M724.26,213.69c0,7.9-1.23,15.27-3.61,21.92c6.37,11.74,17.68,19.89,32.26,19.89
		c11.31,0,18.53-5.58,20.66-7.54l2.79,6.07h38.37v-21.31h-7.87h0V131.07h-40.82v21.31h7.54v24.26c-3.12-1.97-9.02-6.23-20.66-6.23
		c-0.63,0-1.26,0.02-1.88,0.05c-1.25,0.06-2.49,0.19-3.71,0.37c-1.22,0.19-2.43,0.43-3.63,0.74s-2.36,0.67-3.52,1.1
		c-1.15,0.42-2.28,0.9-3.38,1.44c-1.1,0.54-2.18,1.13-3.23,1.78c-1.05,0.65-2.06,1.35-3.05,2.1c-0.98,0.75-1.93,1.56-2.84,2.42
		c-0.91,0.86-1.79,1.76-2.62,2.72c-0.42,0.48-0.82,0.97-1.22,1.47c-0.79,1.01-1.54,2.06-2.24,3.16c-0.35,0.55-0.69,1.11-1.02,1.68
		c-0.16,0.27-0.3,0.56-0.45,0.84C722.83,197.4,724.26,205.35,724.26,213.69z M750.34,207.76c0.29-2.82,0.85-5.34,1.65-7.5
		c0.4-1.08,0.86-2.07,1.37-2.96c0.26-0.45,0.53-0.87,0.81-1.26c1.98-2.77,4.58-4.31,7.59-4.31c1.17,0,2.31,0.3,3.4,0.86
		c0.73,0.37,1.43,0.86,2.1,1.46c0.67,0.59,1.3,1.29,1.89,2.08c1.18,1.58,2.18,3.54,2.93,5.77c0.94,2.79,1.48,6.02,1.48,9.5
		c0.66,12.95-5.25,20.98-11.64,20.98c-7.21,0-11.8-10.33-11.8-20.16C750.12,210.66,750.19,209.17,750.34,207.76z"/>
	<path class="st0" d="M716.74,225.9c0.96,3.42,2.27,6.69,3.91,9.71c2.38-6.64,3.61-14.01,3.61-21.92c0-8.34-1.43-16.3-4.13-23.42
		c-0.48,0.89-0.94,1.8-1.36,2.74c-0.28,0.62-0.54,1.25-0.79,1.89c-0.5,1.28-0.94,2.6-1.33,3.97c-0.08,0.29-0.15,0.59-0.23,0.88
		c0.97,4.35,1.49,9.01,1.49,13.95C717.92,217.97,717.51,222.05,716.74,225.9z"/>
	<path class="st0" d="M716.74,225.9c0.77-3.85,1.18-7.93,1.18-12.2c0-4.94-0.52-9.6-1.49-13.95c-1,3.85-1.56,8.02-1.56,12.47
		C714.87,216.93,715.52,221.54,716.74,225.9z"/>
	<path class="st0" d="M761.76,191.73c1.17,0,2.31,0.3,3.4,0.86C764.07,192.03,762.93,191.73,761.76,191.73
		c-3.01,0-5.62,1.54-7.59,4.31C756.14,193.26,758.75,191.73,761.76,191.73z"/>
	<path class="st0" d="M769.15,196.13c1.18,1.58,2.18,3.54,2.93,5.77C771.33,199.66,770.33,197.71,769.15,196.13z"/>
	<rect x="806.85" y="131.07" class="st0" width="0" height="101.64"/>
	<path class="st0" d="M765.16,192.59c0.73,0.37,1.43,0.86,2.1,1.46C766.59,193.45,765.89,192.96,765.16,192.59z"/>
	<path class="st0" d="M751.99,200.26c0.4-1.08,0.86-2.07,1.37-2.96C752.84,198.19,752.39,199.18,751.99,200.26z"/>
	<path class="st0" d="M750.12,212.22c0-1.56,0.07-3.05,0.22-4.46C750.19,209.17,750.12,210.66,750.12,212.22z"/>
</g>
</svg>
