<?xml version="1.0" encoding="utf-8"?>
<!-- Generator: Adobe Illustrator 23.0.1, SVG Export Plug-In . SVG Version: 6.00 Build 0)  -->
<svg version="1.1" id="Layer_1" xmlns="http://www.w3.org/2000/svg" xmlns:xlink="http://www.w3.org/1999/xlink" x="0px" y="0px"
	 viewBox="0 0 829.4 398.2" style="enable-background:new 0 0 829.4 398.2;" xml:space="preserve">
<style type="text/css">
	.st0{fill:#FFFFFF;}
</style>
<g>
	<path class="st0" d="M107.8,261.5c9.2,10.9,26,22.2,50.4,22.2c28.7,0,63.9-13.5,63.9-51.1c0-56.7-95.5-50.9-95.5-75.7
		c0-8.4,9.6-12.8,16.6-12.8c16.9,0,30.9,10.1,30.9,28h43.6v-60.5h-41.5l-2.4,20.3c-9.6-18.1-30.1-24.6-50.4-24.6
		c-23.6,0-57.4,16.2-57.4,51.8c0,61.5,92.6,53.5,92.6,72.3c0,10.1-12.1,12.1-20.5,12.1c-10.1-0.5-30.4-3.9-30.4-24.1H62.9v60.8h42.2
		L107.8,261.5z"/>
	<path class="st0" d="M23.1,285.6V91.1c0-3,0.5-5.9,1.5-8.7C14.4,84.8,7,93.8,7,104.5v201.2c0,12.5,10.2,22.7,22.7,22.7h201.2
		c10.7,0,19.7-7.4,22.1-17.5c-2.8,1-5.7,1.5-8.7,1.5H49.8C35.1,312.3,23.1,300.3,23.1,285.6z M248.1,315.1
		c-3.3,6.1-9.8,10.2-17.2,10.2H29.7c-10.8,0-19.6-8.8-19.6-19.6V104.5c0-7.4,4.1-13.9,10.2-17.2c-0.2,1.3-0.2,2.5-0.2,3.8v194.5
		c0,16.4,13.4,29.8,29.8,29.8h194.5C245.5,315.4,246.8,315.3,248.1,315.1z"/>
	<path class="st0" d="M20,285.6V91.1c0-1.3,0.1-2.5,0.2-3.8c-6.1,3.3-10.2,9.8-10.2,17.2v201.2c0,10.8,8.8,19.6,19.6,19.6h201.2
		c7.4,0,13.9-4.1,17.2-10.2c-1.3,0.2-2.5,0.2-3.8,0.2H49.8C33.4,315.4,20,302,20,285.6z M29.7,319.8c-7.8,0-14.1-6.3-14.1-14.1
		v-11.6c3.1,12.6,13.1,22.6,25.7,25.7H29.7z"/>
	<path class="st0" d="M265.5,91.1c0-11.7-9.5-21.3-21.3-21.3H59.6c-5.8,0-11.3,2.4-15.2,6.5h186.5c15.5,0,28.2,12.7,28.2,28.2v34.8
		l6.5-2.1L265.5,91.1L265.5,91.1z"/>
	<path class="st0" d="M532.6,210.9c-0.2-1.2-0.4-2.3-0.8-3.3C532.1,208.6,532.4,209.7,532.6,210.9z"/>
	<path class="st0" d="M463.3,205.3c-0.5,0.7-0.9,1.5-1.2,2.5C462.3,206.9,462.8,206,463.3,205.3z"/>
	<path class="st0" d="M467.7,202.7c0.6-0.1,1.4-0.2,2.1-0.2l0,0C469.1,202.6,468.4,202.6,467.7,202.7z"/>
	<path class="st0" d="M532.9,214.6c0.2,3.9-0.1,8-0.1,11.4v46.5l0,0v-46.5C532.8,222.7,533.1,218.5,532.9,214.6z"/>
	<rect x="588.6" y="177.7" class="st0" width="0" height="25.2"/>
	<rect x="588.6" y="286.4" class="st0" width="0" height="24.9"/>
	<path class="st0" d="M638.8,181.9c-1.4,0.9-2.6,1.7-3.5,2.4l0,0C636.2,183.7,637.4,182.8,638.8,181.9z"/>
	<path class="st0" d="M635.1,224.5c0-1.8,0.2-3.5,0.4-5.1C635.2,221,635.1,222.7,635.1,224.5z"/>
	<path class="st0" d="M639.2,243.4c-0.6-1-1.2-2.1-1.7-3.3C638,241.3,638.6,242.4,639.2,243.4z"/>
	<path class="st0" d="M636.2,236.2c-0.4-1.4-0.6-2.8-0.8-4.3C635.6,233.4,635.9,234.9,636.2,236.2z"/>
	<path class="st0" d="M635.9,217.1c0.3-1.5,0.7-2.9,1.2-4.2C636.6,214.2,636.2,215.6,635.9,217.1z"/>
	<path class="st0" d="M656.5,246.3c-1.1,1.2-2.3,2.1-3.6,2.8C654.3,248.4,655.5,247.5,656.5,246.3z"/>
	<path class="st0" d="M658.3,176.2c-2.1,0-4.1,0.2-6,0.5C654.1,176.4,656.1,176.2,658.3,176.2L658.3,176.2z"/>
	<path class="st0" d="M643.9,179.3c1.9-0.9,4.1-1.6,6.5-2.2C648,177.6,645.8,178.4,643.9,179.3z"/>
	<path class="st0" d="M653,249c-0.9,0.4-1.8,0.7-2.7,0.8C651.2,249.7,652.1,249.5,653,249z"/>
	<path class="st0" d="M662.2,226.3c0,8.1-1.7,14.6-4.7,18.7C660.5,240.9,662.2,234.4,662.2,226.3c0-1.4-0.1-2.9-0.2-4.3
		C662.2,223.4,662.2,224.8,662.2,226.3z"/>
	<path class="st0" d="M656.6,207.3c0.7,0.9,1.4,1.9,2,3C658,209.2,657.3,208.2,656.6,207.3z"/>
	<path class="st0" d="M642,205.5c-1.6,1.4-3,3.2-4.1,5.6C639,208.8,640.4,206.9,642,205.5z"/>
	<path class="st0" d="M648.6,202.9c-0.9,0-1.8,0.2-2.7,0.4C646.7,203.1,647.7,202.9,648.6,202.9L648.6,202.9z"/>
	<path class="st0" d="M640.2,244.9c1.7,2.3,3.7,3.9,5.9,4.6C644,248.8,641.9,247.2,640.2,244.9z"/>
	<path class="st0" d="M660.1,213.9c0.9,2.5,1.6,5.3,1.9,8.1C661.7,219.2,661,216.4,660.1,213.9z"/>
	<path class="st0" d="M658.5,210.3c0.6,1.1,1.1,2.3,1.6,3.6C659.7,212.6,659.1,211.4,658.5,210.3z"/>
	<path class="st0" d="M642,205.5c1.2-1,2.5-1.8,3.8-2.2C644.5,203.8,643.2,204.5,642,205.5z"/>
	<path class="st0" d="M713.4,197.8c-0.2,0.3-0.3,0.6-0.5,1l0,0C713.1,198.5,713.3,198.1,713.4,197.8z"/>
	<path class="st0" d="M714.6,195.9c0.8-1.3,1.7-2.5,2.6-3.7C716.3,193.4,715.4,194.6,714.6,195.9z"/>
	<path class="st0" d="M721.7,187.4c1.1-1,2.2-1.9,3.3-2.8C723.8,185.4,722.7,186.4,721.7,187.4z"/>
	<path class="st0" d="M744.4,176.3c1.4-0.2,2.8-0.4,4.3-0.4C747.2,175.9,745.8,176.1,744.4,176.3z"/>
	<path class="st0" d="M728.5,182.1c1.2-0.8,2.5-1.4,3.7-2.1C730.9,180.7,729.7,181.4,728.5,182.1z"/>
	<path class="st0" d="M736.1,178.4c1.3-0.5,2.7-0.9,4.1-1.3C738.8,177.5,737.5,177.9,736.1,178.4z"/>
	<path class="st0" d="M721.7,187.4c-1.1,1-2.1,2-3,3.1C719.6,189.4,720.6,188.3,721.7,187.4z"/>
	<path class="st0" d="M708.9,208.7c0.4-1.6,1-3.1,1.5-4.6C709.9,205.6,709.4,207.1,708.9,208.7z"/>
	<path class="st0" d="M712.9,198.8c-0.6,1-1.1,2.1-1.6,3.2C711.8,200.9,712.4,199.8,712.9,198.8L712.9,198.8z"/>
	<path class="st0" d="M282.9,251.3c-7.4,0-6.1-8.7-6.1-15.2v-33.8h18V202l-4.1-11.3c-1.6-4.4-0.9-9.2,1.5-13h-15.4V149l-5.2,1.7
		v95.8c0,9.9-5.4,19.1-14.2,24c-0.5,0.3-1,0.4-1.5,0.4c-0.6,0-1.1-0.2-1.6-0.5c-0.9-0.6-1.5-1.6-1.4-2.7l0-0.5c0-0.2,0-0.4,0-0.6
		V156.7l-11,3.5v17.5h-10.2v24.7h10.2v33.8c0.6,24.3,1.5,39.9,30,39.9c4.4,0,17.3-1.3,23-3.6v-0.7c-4.6-6-7.5-13.1-8.6-20.9
		C284.9,251.1,283.7,251.3,282.9,251.3z"/>
	<path class="st0" d="M265.5,246.5v-93.8l-6.5,2.1v106.9C263.1,257.7,265.5,252.3,265.5,246.5z"/>
	<path class="st0" d="M252.9,267.1l0,0.5c-0.1,1.1,0.5,2.2,1.4,2.7c0.5,0.3,1.1,0.5,1.6,0.5c0.5,0,1-0.1,1.5-0.4
		c8.8-4.8,14.2-14,14.2-24v-95.8l-3.1,1v94.8c0,9.1-5.1,17.1-12.6,21.3c0-0.4,0.1-0.8,0.1-1.2V155.7l-3.1,1v109.9
		C252.9,266.8,252.9,267,252.9,267.1z"/>
	<path class="st0" d="M255.9,267.8c7.5-4.1,12.6-12.2,12.6-21.3v-94.8l-3.1,1v93.8c0,5.8-2.4,11.3-6.5,15.2V154.7l-3.1,1v110.9
		C256,267,256,267.4,255.9,267.8z"/>
	<path class="st0" d="M290.7,190.7l4.1,11.3v-24.3h-2.6C289.8,181.5,289.1,186.2,290.7,190.7z"/>
	<path class="st0" d="M294.9,271.7V256c-0.7-2.3-1.2-4.8-1.4-7.3c-2.2,0.8-4.9,1.6-7.1,2.2C287.3,258.6,290.2,265.7,294.9,271.7z"/>
	<path class="st0" d="M294.9,248.1c-0.4,0.2-0.9,0.4-1.4,0.6c0.2,2.6,0.7,5,1.4,7.3V248.1z"/>
	<path class="st0" d="M397.3,211.3c0-30.6-28.7-39.1-51.4-39.1c-9,0-17.6,2.3-24.9,5.3c1.9,7.6,4.6,15.1,8.2,22.3
		c0.1,0.3,0.2,0.5,0.4,0.8c3.6-0.9,7.3-1.5,11.3-1.5c10.3,0,18,2.1,18,10.6v6.6c-0.9-1.1-7.6-6.6-18.8-6.6c-2.2,0-4.3,0.1-6.4,0.4
		c3.1,8.1,5.2,16.3,6.4,24.7c1.8-1.4,4.3-2.2,7.6-2.2c8,0,10.6,4.5,11.2,5.5v7.2c-1.7,2.8-6.4,6.3-12.1,6.3c-2.1,0-4-0.5-5.6-1.4
		c0,8.7-1.1,17.5-3.2,26c0,0,0.1,0,0.1,0c6.8,0,18.6-2.5,25.6-12.1l4.5,8.5h33.5v-24.3h-4.3L397.3,211.3L397.3,211.3z"/>
	<path class="st0" d="M328.8,210.9c-4.6,1.1-8.8,2.9-12.6,5.2c8.9,19.2,11.7,39.3,9.4,58.5c2.4,0.6,4.8,1.1,7.3,1.3
		C338.4,254.4,337,231.9,328.8,210.9z"/>
	<path class="st0" d="M309.5,199.4l3,8.2c3.5-1.9,7.7-4.1,12.3-5.7c0,0,0,0,0,0c-3.6-7.3-6.4-14.8-8.4-22.5
		c-2.5,1.2-4.8,2.3-6.9,3.4L309.5,199.4L309.5,199.4z"/>
	<path class="st0" d="M301.8,235.2c0.4,0.2,0.8,0.4,1.2,0.7c4.1,2.7,6.6,7.3,6.6,12.2v18c4.4,4.1,10,6.9,16.1,8.5
		c2.3-19.2-0.5-39.4-9.4-58.5C309.2,220.5,304,227,301.8,235.2z"/>
	<path class="st0" d="M337.8,237.3c0.5-1,1.3-1.9,2.2-2.6c-1.2-8.4-3.3-16.6-6.4-24.7c-0.8,0.1-1.7,0.2-2.5,0.4
		C334.6,219.2,336.8,228.3,337.8,237.3z"/>
	<path class="st0" d="M327,200.8c0.1,0.1,0.1,0.2,0.2,0.3c0.8-0.2,1.6-0.5,2.4-0.7c-0.1-0.3-0.2-0.5-0.4-0.8
		c-3.6-7.2-6.3-14.6-8.2-22.3c-0.8,0.3-1.5,0.6-2.3,0.9C320.6,186.1,323.4,193.6,327,200.8L327,200.8z"/>
	<path class="st0" d="M341.1,250.1c-1-0.5-1.8-1.2-2.5-2.1c0.1,9.5-1,18.9-3.3,28c0.8,0,1.7,0.1,2.5,0.1
		C339.9,267.6,341,258.9,341.1,250.1z"/>
	<path class="st0" d="M338.6,248.1c-1.2-1.5-2-3.3-2-5.5c0-2,0.4-3.8,1.2-5.3c-1-9-3.2-18-6.7-26.9c-0.8,0.2-1.6,0.3-2.4,0.5
		c8.2,21,9.6,43.5,4.1,65c0.8,0.1,1.6,0.1,2.5,0.2C337.6,267,338.7,257.6,338.6,248.1z"/>
	<path class="st0" d="M324.8,201.9c0.8-0.3,1.5-0.5,2.3-0.8c-0.1-0.1-0.1-0.2-0.2-0.3l0,0c-3.6-7.2-6.3-14.7-8.3-22.4
		c-0.8,0.3-1.5,0.7-2.3,1C318.4,187.1,321.2,194.6,324.8,201.9C324.8,201.9,324.8,201.9,324.8,201.9z"/>
	<path class="st0" d="M306.8,192l2.7,7.4v-16.6c-1.6,0.9-3,1.7-4.3,2.4C305.7,187.5,306.2,189.8,306.8,192z"/>
	<path class="st0" d="M306.8,192c-0.6-2.2-1.1-4.5-1.6-6.8c-0.2,0.1-0.5,0.3-0.7,0.4L306.8,192z"/>
	<path class="st0" d="M302.2,248.1v6.7c1.5,4.5,4.1,8.3,7.3,11.3v-18c0-4.9-2.5-9.5-6.6-12.2c-0.4-0.3-0.8-0.5-1.2-0.7
		c-0.7,2.6-1.1,5.4-1.2,8.3C301.6,244.8,302.2,246.4,302.2,248.1z"/>
	<path class="st0" d="M302.2,254.8v-6.7c0-1.7-0.6-3.3-1.6-4.6c0,0.3,0,0.6,0,1C300.6,248.3,301.1,251.7,302.2,254.8z"/>
	<rect x="401.6" y="248.3" class="st0" width="7.1" height="24.3"/>
	<path class="st0" d="M423.4,272.6h49.3v-24.9h-11.4v-33.8c0-2.4,0.2-4.5,0.8-6.1c0.3-1,0.7-1.8,1.2-2.5c1-1.4,2.5-2.3,4.4-2.6
		c0.6-0.1,1.4-0.2,2.1-0.2l0,0l0,0c2.4,0,4,0.6,5.2,1.9c0.5,0.5,0.9,1.2,1.2,1.9s0.6,1.6,0.8,2.6c0.7,3.5,0.8,8.5,0.8,15.2v48.4
		h49.1v-25.4h-11.4l0,0v-30.7c0-1,0-2,0.1-2.9c0.1-1.9,0.4-3.6,0.9-5c0.3-0.7,0.6-1.4,0.9-2c0.6-0.9,1.3-1.7,2.1-2.3
		c0.6-0.4,1.3-0.7,2-1c0.7-0.3,1.6-0.4,2.5-0.5c0.5,0,0.9-0.1,1.5-0.1c3.3,0,5.2,2,6.2,5c0.3,1,0.6,2.1,0.8,3.3
		c0.2,1.2,0.3,2.4,0.3,3.7c0.2,3.9-0.1,8-0.1,11.4v46.5H581V247h-9.3v-26.2c0-23.1-4.7-45.5-35.5-45.5c-13.1,0-22,7-27.9,13.7
		c-3-4.5-9.1-13.7-28.3-13.7c-3.7,0-7.2,1-10.2,2.5c-1.2,0.6-2.4,1.3-3.4,2c-1.1,0.7-2.1,1.5-3,2.3c-1.4,1.2-2.7,2.3-3.7,3.4
		c-1.4,1.5-2.5,2.8-3.3,3.7l-4.2-11.2h-35.9v25h8v44.8h-0.9c0,0.2,0,0.4,0,0.6L423.4,272.6L423.4,272.6z"/>
	<path class="st0" d="M416.3,272.6h7.1v-24.3c0-0.2,0-0.4,0-0.6h-7V272.6z"/>
	<path class="st0" d="M515.6,247.1L515.6,247.1v-30.7c0-1,0-2,0.1-2.9c-0.1,0.9-0.1,1.9-0.1,2.9V247.1z"/>
	<path class="st0" d="M517.5,206.4c0.6-0.9,1.3-1.7,2.1-2.3C518.8,204.7,518.1,205.5,517.5,206.4z"/>
	<path class="st0" d="M469.8,202.6c2.4,0,4,0.6,5.2,1.9C473.9,203.2,472.2,202.6,469.8,202.6L469.8,202.6z"/>
	<path class="st0" d="M477,209c-0.2-1-0.5-1.9-0.8-2.6C476.5,207.1,476.8,208,477,209z"/>
	<path class="st0" d="M466.4,179.7c1.1-0.7,2.2-1.4,3.4-2C468.7,178.3,467.5,179,466.4,179.7z"/>
	<path class="st0" d="M459.7,185.4c1.1-1.1,2.3-2.3,3.7-3.4C462,183.1,460.7,184.3,459.7,185.4z"/>
	<rect x="526.9" y="247.1" class="st0" width="0" height="25.4"/>
	<path class="st0" d="M524.1,202.6c-0.9,0.1-1.8,0.3-2.5,0.5C522.4,202.9,523.2,202.7,524.1,202.6z"/>
	<path class="st0" d="M516.6,208.4c-0.5,1.5-0.8,3.2-0.9,5C515.8,211.6,516.1,209.9,516.6,208.4z"/>
	<path class="st0" d="M696.9,198.7c-2.1-4.1-4.8-7.8-8.1-11c-1.6-1.5-3.3-2.9-5.1-4.2c-0.6-0.4-1.2-0.8-1.9-1.2
		c-1.9-1.2-4-2.2-6.2-3c-5.1-2-10.9-3.1-17.4-3.1c-2.1,0-4.1,0.2-6,0.5c-0.6,0.1-1.3,0.2-1.8,0.4c-2.4,0.6-4.6,1.3-6.5,2.2
		c-1.9,0.9-3.6,1.8-5.1,2.7c-1.4,0.9-2.6,1.7-3.5,2.4l0,0l0,0l-3.2-6.6h-43.5v25.2h8v83.5h-8v24.9h56.7v-24.9h-10.2v-19.2
		c1.3,1.1,8.9,7.4,24.7,7.4c16.5,0,30.3-8.4,37.7-23.1c-3.4-8.4-5.3-17.7-5.3-27.4C692.2,215.1,693.8,206.5,696.9,198.7z M657.6,245
		c-0.3,0.5-0.7,0.9-1,1.3c-1.1,1.2-2.3,2.1-3.6,2.8c-0.9,0.4-1.8,0.7-2.7,0.8c-0.5,0.1-1,0.1-1.5,0.1c-0.9,0-1.8-0.2-2.7-0.5
		c-2.2-0.7-4.2-2.3-5.9-4.6c-0.3-0.5-0.7-0.9-1-1.4c-0.6-1-1.2-2.1-1.7-3.3c-0.5-1.2-0.9-2.5-1.3-3.9c-0.4-1.4-0.6-2.8-0.8-4.3
		c-0.2-1.5-0.3-3.1-0.3-4.7c0-0.9-0.1-1.9-0.1-2.7c0-1.8,0.2-3.5,0.4-5.1c0.1-0.8,0.3-1.6,0.4-2.3c0.3-1.5,0.7-2.9,1.2-4.2
		c0.2-0.6,0.5-1.3,0.8-1.8c1.1-2.3,2.5-4.2,4.1-5.6c1.2-1,2.5-1.8,3.8-2.2c0.9-0.3,1.8-0.4,2.7-0.4l0,0l0,0c1,0,2,0.2,3,0.5
		c1.9,0.7,3.6,2,5,3.8c0.7,0.9,1.4,1.9,2,3c0.6,1.1,1.1,2.3,1.6,3.6c0.9,2.5,1.6,5.3,1.9,8.1c0.2,1.4,0.2,2.8,0.2,4.3
		C662.2,234.4,660.5,240.9,657.6,245z"/>
	<path class="st0" d="M658.3,176.2L658.3,176.2c6.5,0,12.3,1.1,17.4,3.1C670.5,177.3,664.7,176.2,658.3,176.2z"/>
	<path class="st0" d="M683.6,183.5c1.8,1.3,3.5,2.7,5.1,4.2C687.2,186.2,685.5,184.7,683.6,183.5z"/>
	<path class="st0" d="M675.6,179.3c2.2,0.8,4.2,1.9,6.2,3C679.8,181.1,677.8,180.1,675.6,179.3z"/>
	<polygon class="st0" points="635.3,184.3 632.1,177.7 632.1,177.7 	"/>
	<path class="st0" d="M648.6,202.9L648.6,202.9c1,0,2,0.2,3,0.5C650.6,203.1,649.6,202.9,648.6,202.9z"/>
	<path class="st0" d="M692.2,224.2c0,9.6,1.8,18.9,5.3,27.4c1.7-3.4,3-7.1,4-11.2c-1.3-5.1-1.9-10.5-1.9-16.2c0-5.2,0.6-10,1.6-14.4
		c-1-3.9-2.4-7.6-4.2-11.1C693.8,206.5,692.2,215.1,692.2,224.2z"/>
	<path class="st0" d="M701.4,240.4c1-4.5,1.6-9.3,1.6-14.5c0-5.6-0.7-11.1-2-16.1c-1,4.5-1.6,9.3-1.6,14.4
		C699.5,229.9,700.2,235.3,701.4,240.4z"/>
	<path class="st0" d="M717.7,225.9c0,9.1-1.4,17.7-4.2,25.4c7.4,13.6,20.5,23,37.3,23c13.1,0,21.4-6.5,23.9-8.7l3.2,7h44.4v-24.7
		h-9.1l0,0V130.3h-47.2v24.7h8.7V183c-3.6-2.3-10.4-7.2-23.9-7.2c-0.7,0-1.5,0-2.2,0.1c-1.4,0.1-2.9,0.2-4.3,0.4
		c-1.4,0.2-2.8,0.5-4.2,0.9c-1.4,0.4-2.7,0.8-4.1,1.3c-1.3,0.5-2.6,1-3.9,1.7c-1.3,0.6-2.5,1.3-3.7,2.1c-1.2,0.8-2.4,1.6-3.5,2.4
		c-1.1,0.9-2.2,1.8-3.3,2.8c-1.1,1-2.1,2-3,3.1c-0.5,0.6-0.9,1.1-1.4,1.7c-0.9,1.2-1.8,2.4-2.6,3.7c-0.4,0.6-0.8,1.3-1.2,1.9
		c-0.2,0.3-0.3,0.6-0.5,1C716.1,207,717.7,216.2,717.7,225.9z M747.9,219c0.3-3.3,1-6.2,1.9-8.7c0.5-1.3,1-2.4,1.6-3.4
		c0.3-0.5,0.6-1,0.9-1.5c2.3-3.2,5.3-5,8.8-5c1.4,0,2.7,0.3,3.9,1c0.8,0.4,1.7,1,2.4,1.7c0.8,0.7,1.5,1.5,2.2,2.4
		c1.4,1.8,2.5,4.1,3.4,6.7c1.1,3.2,1.7,7,1.7,11c0.8,15-6.1,24.3-13.5,24.3c-8.3,0-13.7-12-13.7-23.3
		C747.6,222.4,747.7,220.7,747.9,219z"/>
	<path class="st0" d="M709,240c1.1,4,2.6,7.7,4.5,11.2c2.8-7.7,4.2-16.2,4.2-25.4c0-9.7-1.7-18.9-4.8-27.1c-0.6,1-1.1,2.1-1.6,3.2
		c-0.3,0.7-0.6,1.4-0.9,2.2c-0.6,1.5-1.1,3-1.5,4.6c-0.1,0.3-0.2,0.7-0.3,1c1.1,5,1.7,10.4,1.7,16.1
		C710.4,230.8,709.9,235.6,709,240z"/>
	<path class="st0" d="M709,240c0.9-4.5,1.4-9.2,1.4-14.1c0-5.7-0.6-11.1-1.7-16.1c-1.2,4.5-1.8,9.3-1.8,14.4
		C706.8,229.6,707.6,235,709,240z"/>
	<path class="st0" d="M761.1,200.5c1.4,0,2.7,0.3,3.9,1C763.8,200.8,762.5,200.5,761.1,200.5c-3.5,0-6.5,1.8-8.8,5
		C754.6,202.2,757.6,200.5,761.1,200.5z"/>
	<path class="st0" d="M769.7,205.6c1.4,1.8,2.5,4.1,3.4,6.7C772.2,209.6,771,207.4,769.7,205.6z"/>
	<rect x="813.3" y="130.3" class="st0" width="0" height="117.6"/>
	<path class="st0" d="M765.1,201.5c0.8,0.4,1.7,1,2.4,1.7C766.7,202.5,765.9,201.9,765.1,201.5z"/>
	<path class="st0" d="M749.8,210.3c0.5-1.3,1-2.4,1.6-3.4C750.8,207.9,750.3,209.1,749.8,210.3z"/>
	<path class="st0" d="M747.6,224.2c0-1.8,0.1-3.5,0.3-5.2C747.7,220.7,747.6,222.4,747.6,224.2z"/>
</g>
</svg>
